<?xml version="1.0" encoding="utf-8"?>
<!-- Generator: Adobe Illustrator 16.0.0, SVG Export Plug-In . SVG Version: 6.00 Build 0)  -->
<!DOCTYPE svg PUBLIC "-//W3C//DTD SVG 1.1//EN" "http://www.w3.org/Graphics/SVG/1.1/DTD/svg11.dtd">
<svg version="1.1" id="Layer_1" xmlns="http://www.w3.org/2000/svg" xmlns:xlink="http://www.w3.org/1999/xlink" x="0px" y="0px"
	 width="369px" height="89px" viewBox="0 0 369 89" enable-background="new 0 0 369 89" xml:space="preserve">
<title>Layer 1</title>
<g>
	<g>
		<path d="M89.904,84.089l7.16-18.073h1.902l7.209,18.073H104.4l-1.929-4.883h-8.987l-1.901,4.883H89.904z M101.897,77.704
			l-3.905-10.188l-3.98,10.188H101.897z"/>
		<path d="M109.879,84.089h-1.501v-9.738c0-0.978-0.075-1.979-0.124-2.83h1.55l0.075,1.852l0.052,0.051
			c0.876-1.552,2.304-2.28,3.93-2.28c4.105,0,4.432,3.632,4.432,5.083v7.862h-1.503v-8.112c0-2.178-1.252-3.458-3.305-3.458
			c-2.479,0-3.605,2.083-3.605,4.334V84.089z"/>
		<polygon points="129.803,84.089 129.803,66.016 140.544,66.016 140.544,67.516 131.43,67.516 131.43,74 140.193,74 
			140.193,75.501 131.43,75.501 131.43,82.585 140.919,82.585 140.919,84.089 		"/>
		<path d="M146.049,84.089h-1.503v-9.738c0-0.978-0.074-1.979-0.126-2.83h1.555l0.074,1.852l0.051,0.051
			c0.874-1.552,2.302-2.28,3.93-2.28c4.105,0,4.433,3.632,4.433,5.083v7.862h-1.503v-8.112c0-2.178-1.253-3.458-3.305-3.458
			c-2.479,0-3.605,2.083-3.605,4.334V84.089z"/>
		<path d="M159.339,78.155c0.051,2.678,1.276,4.93,4.355,4.93c1.78,0,3.255-1.277,3.633-3.004h1.573
			c-0.774,3.004-2.651,4.382-5.681,4.382c-3.756,0-5.508-3.229-5.508-6.661c0-3.405,1.878-6.66,5.606-6.66
			c4.206,0,5.733,3.08,5.733,7.012H159.339z M167.426,76.777c-0.176-2.427-1.478-4.258-4.08-4.258c-2.454,0-3.756,2.055-3.956,4.258
			H167.426z"/>
		<rect x="172.405" y="66.016" width="1.503" height="18.073"/>
		<path d="M198.688,74.876v8.46c-2.178,0.851-4.155,1.127-6.484,1.127c-4.93,0-7.71-3.855-7.71-9.413
			c0-4.656,2.478-9.415,7.71-9.415c3.005,0,6.084,1.626,6.36,4.832h-1.854c-0.325-2.302-2.354-3.328-4.506-3.328
			c-4.329,0-5.956,4.155-5.956,7.911c0,4.604,1.929,7.91,6.808,7.91c1.352,0,2.727-0.379,4.007-0.752v-5.832h-4.533v-1.501H198.688z
			"/>
		<path d="M204.469,84.089h-1.502v-9.738c0.024-0.978-0.076-1.979-0.126-2.83h1.551l0.077,1.852h0.049
			c0.451-1.277,1.575-2.178,2.829-2.229c0.5-0.024,1.002,0,1.501,0.026v1.453c-0.3-0.024-0.626-0.103-0.926-0.103
			c-2.228,0-3.404,1.602-3.453,4.008V84.089z"/>
		<path d="M222.115,77.803c0,3.305-1.853,6.661-5.858,6.661c-4.005,0-5.857-3.355-5.857-6.661c0-3.303,1.853-6.658,5.857-6.658
			C220.263,71.146,222.115,74.5,222.115,77.803 M216.257,72.522c-3.027,0-4.232,2.954-4.232,5.281c0,2.329,1.205,5.282,4.232,5.282
			c3.028,0,4.23-2.954,4.23-5.282C220.487,75.476,219.285,72.522,216.257,72.522"/>
		<path d="M233.629,71.521h1.501v9.737c0,0.977,0.076,1.98,0.128,2.831h-1.555l-0.074-1.854l-0.05-0.048
			c-0.878,1.552-2.305,2.278-3.933,2.278c-4.104,0-4.429-3.631-4.429-5.083v-7.861h1.502v8.11c0,2.177,1.252,3.455,3.304,3.455
			c2.478,0,3.605-2.076,3.605-4.332V71.521z"/>
		<path d="M240.386,88.895h-1.5V74.351c0.022-0.978-0.076-1.979-0.126-2.83h1.553l0.073,1.852l0.049,0.05
			c0.876-1.475,2.629-2.279,4.308-2.279c3.729,0,5.158,3.356,5.158,6.609c0,3.153-1.429,6.711-5.085,6.711
			c-1.827,0-3.353-0.825-4.381-2.329h-0.049V88.895z M244.668,83.085c2.878,0,3.604-3.18,3.604-5.505
			c0-2.406-0.977-5.061-3.829-5.061c-2.93,0-4.057,2.432-4.057,4.984C240.386,80.357,241.39,83.085,244.668,83.085"/>
		<path d="M271.576,70.243c-0.301-2.205-2.203-3.102-4.257-3.102c-4.632,0-6.033,4.204-6.033,7.911c0,3.702,1.401,7.91,6.033,7.91
			c2.002,0,4.006-1.001,4.458-3.255h1.75c-0.524,3.028-3.304,4.757-6.208,4.757c-5.482,0-7.785-4.408-7.785-9.413
			c0-4.959,2.329-9.415,7.785-9.415c2.955,0,5.759,1.353,6.008,4.606H271.576z"/>
		<path d="M287.518,77.803c0,3.305-1.852,6.661-5.856,6.661c-4.008,0-5.859-3.355-5.859-6.661c0-3.303,1.852-6.658,5.859-6.658
			C285.666,71.146,287.518,74.5,287.518,77.803 M281.662,72.522c-3.029,0-4.232,2.954-4.232,5.281c0,2.329,1.203,5.282,4.232,5.282
			c3.026,0,4.23-2.954,4.23-5.282C285.892,75.476,284.688,72.522,281.662,72.522"/>
		<path d="M292.098,73.373l0.05,0.051c0.876-1.552,2.304-2.28,3.932-2.28c1.978,0,3.529,1.104,4.079,2.754
			c0.927-1.475,2.378-2.754,4.332-2.754c4.105,0,4.433,3.632,4.433,5.083v7.862h-1.506v-8.112c0-2.181-1.251-3.458-3.303-3.458
			c-2.477,0-3.606,2.083-3.606,4.334v7.236h-1.5v-8.112c0-2.181-1.251-3.458-3.304-3.458c-2.478,0-3.606,2.083-3.606,4.334v7.236
			h-1.502v-9.738c0-0.978-0.076-1.979-0.125-2.83h1.551L292.098,73.373z"/>
		<path d="M314.124,88.895h-1.501V74.351c0.023-0.978-0.074-1.979-0.125-2.83h1.551l0.076,1.852l0.051,0.05
			c0.875-1.475,2.629-2.279,4.304-2.279c3.733,0,5.16,3.356,5.16,6.609c0,3.153-1.427,6.711-5.084,6.711
			c-1.828,0-3.355-0.825-4.38-2.329h-0.051V88.895z M318.406,83.085c2.877,0,3.605-3.18,3.605-5.505
			c0-2.406-0.978-5.061-3.832-5.061c-2.93,0-4.056,2.432-4.056,4.984C314.124,80.357,315.126,83.085,318.406,83.085"/>
		<path d="M333.899,75.226c-0.15-2.054-1.202-2.707-2.979-2.707c-1.58,0-2.88,0.479-3.082,2.18h-1.6
			c0.374-2.575,2.305-3.556,4.707-3.556c2.777,0,4.506,1.28,4.454,4.158v5.957c-0.024,0.977,0.078,1.978,0.127,2.831h-1.554
			l-0.05-1.854h-0.048l-0.074,0.177c-0.553,1.05-2.23,2.053-3.934,2.053c-2.329,0-4.178-1.427-4.178-3.881
			c0-1.702,1.025-3.003,2.526-3.632c1.679-0.725,3.856-0.474,5.684-0.573V75.226z M330.143,83.085c3.281,0,3.907-2.703,3.756-5.333
			c-2.13,0.076-6.583-0.324-6.583,2.83C327.316,82.286,328.617,83.085,330.143,83.085"/>
		<path d="M340.805,84.089h-1.5v-9.738c0-0.978-0.075-1.979-0.126-2.83h1.553l0.074,1.852l0.052,0.051
			c0.875-1.552,2.303-2.28,3.929-2.28c4.104,0,4.433,3.632,4.433,5.083v7.862h-1.501v-8.112c0-2.178-1.254-3.458-3.308-3.458
			c-2.478,0-3.605,2.083-3.605,4.334V84.089z"/>
		<polygon points="352.752,71.521 356.98,82.035 361.187,71.521 362.814,71.521 355.881,88.895 354.229,88.895 356.13,84.089 
			350.923,71.521 		"/>
	</g>
	<g>
		<title>Layer 1</title>
		<g>
			<path id="svg_2_2_" fill="#010101" d="M97.519,37.83l-0.305,1.604c-0.826,3.719-1.345,8.467,2.84,8.467
				c3.978,0,5.377-4.543,5.727-6.191h5.294c-1.29,6.137-5.834,10.009-11.872,10.009c-4.542,0-9.856-1.346-7.168-14.194
				c1.549-7.277,4.75-15.018,13.441-15.018c7.74,0,8.824,4.642,7.167,12.384l-0.618,2.939H97.519z M107.276,34.013l0.313-1.497
				c0.771-3.513,0.207-6.192-2.939-6.192c-3.583,0-5.376,3.513-6.191,7.124l-0.108,0.565H107.276z"/>
			<path id="svg_3_2_" fill="#010101" d="M123.621,14.146h9.183l0.672,27.302h0.108l12.186-27.302h8.96l-7.813,36.845h-5.572
				l6.469-30.664h-0.107l-13.933,30.664h-4.955l-0.897-30.664h-0.099l-6.506,30.664h-5.581L123.621,14.146z"/>
			<path id="svg_4_2_" fill="#010101" d="M169.46,22.498c8.064,0,9.14,5.985,7.275,14.605c-1.864,8.62-5.726,14.605-13.44,14.605
				c-7.716,0-9.03-5.985-7.222-14.605C157.884,28.483,161.404,22.498,169.46,22.498z M164.146,47.587
				c4.077,0,5.521-3.406,7.017-10.475c1.29-6.138,1.496-10.476-2.58-10.476c-4.077,0-5.682,4.338-6.972,10.476
				c-1.496,7.061-1.496,10.475,2.526,10.475H164.146z"/>
			<path id="svg_5_2_" fill="#010101" d="M183.036,23.224h3.817l1.702-7.894h5.572l-1.702,7.894h4.542l-0.895,4.13h-4.543
				l-3.512,16.568c-0.468,2.169,0,2.938,1.907,2.938c0.689,0.011,1.381-0.039,2.062-0.151l-0.896,4.131
				c-1.509,0.331-3.052,0.49-4.597,0.466c-3.771,0-5.376-1.031-4.229-6.711l3.664-17.24h-3.818L183.036,23.224z"/>
			<path id="svg_6_2_" fill="#010101" d="M210.796,22.498c8.063,0,9.139,5.985,7.275,14.605c-1.864,8.62-5.727,14.605-13.441,14.605
				s-9.032-5.985-7.222-14.605C199.219,28.483,202.748,22.498,210.796,22.498z M205.479,47.587c4.078,0,5.521-3.406,7.018-10.475
				c1.289-6.138,1.494-10.476-2.58-10.476c-4.078,0-5.681,4.338-6.972,10.476C201.459,44.173,201.459,47.587,205.479,47.587z"/>
			<path id="svg_7_2_" fill="#010101" d="M226.853,23.224h5.572l-0.897,4.335h0.108c1.909-3.099,4.392-5.053,7.535-5.053
				c0.439-0.009,0.876,0.062,1.292,0.207l-1.256,5.672c-0.74-0.196-1.5-0.303-2.266-0.313c-2.528,0-5.779,1.137-6.918,6.271
				l-3.514,16.622h-5.572L226.853,23.224z"/>
			<path id="svg_8_2_" fill="#010101" d="M244.243,14.146h5.933l-1.238,28.674h0.127l10.939-28.674h6.194l-1.193,28.799h0.107
				l10.922-28.799h5.834l-15.17,36.855h-6.81l1.139-27.777h-0.099l-10.584,27.777h-6.807L244.243,14.146z"/>
			<path id="svg_9_2_" fill="#010101" d="M285.22,37.83l-0.315,1.604c-0.825,3.719-1.344,8.467,2.84,8.467
				c3.979,0,5.376-4.543,5.726-6.191h5.27c-1.29,6.137-5.834,10.009-11.871,10.009c-4.543,0-9.857-1.346-7.168-14.194
				c1.548-7.277,4.749-15.018,13.44-15.018c7.741,0,8.825,4.642,7.167,12.384l-0.619,2.939H285.22z M294.977,34.013l0.313-1.497
				c0.771-3.513,0.207-6.192-2.939-6.192c-3.585,0-5.376,3.513-6.19,7.124l-0.108,0.565H294.977z"/>
			<path id="svg_10_2_" fill="#010101" d="M308.963,23.224h5.574l-0.958,4.364h0.108c1.909-3.101,4.39-5.053,7.536-5.053
				c0.438-0.009,0.875,0.06,1.289,0.204l-1.192,5.683c-0.739-0.197-1.5-0.3-2.266-0.315c-2.528,0-5.78,1.139-6.918,6.273
				l-3.513,16.621h-5.572L308.963,23.224z"/>
			<path id="svg_11_2_" fill="#010101" d="M328.731,14.146h5.573l-4.391,20.7h0.107l10.843-11.649l6.505-0.053l-10.68,10.751
				l5.833,17.087h-6.093l-4.139-12.643l-3.978,3.817l-1.857,8.826h-5.572L328.731,14.146z"/>
			<path id="svg_12_2_" fill="#010101" d="M362.484,31.324l0.153-0.726c0.465-2.222,0.15-4.284-2.732-4.284
				c-2.224,0-4.229,1.03-4.749,3.585c-0.468,2.168,0.313,3.046,3.046,4.076l3.307,1.236c3.817,1.388,5.26,3.586,4.336,8.001
				c-1.292,5.933-6.137,8.467-11.764,8.467c-7.017,0-8.469-3.251-7.276-8.619l0.206-1.031h4.955l-0.204,0.896
				c-0.673,3.199,0.105,4.955,3.303,4.955c3.049,0,4.849-1.55,5.376-4.076c0.413-2.062-0.356-3.405-2.221-4.078l-4.186-1.603
				c-3.87-1.443-5.16-3.584-4.23-8.002c1.084-5.215,5.378-7.635,11.093-7.635c7.071,0,7.796,4.131,7.071,7.591l-0.259,1.236
				L362.484,31.324z"/>
			<path id="svg_13_2_" fill="#FF5E00" d="M42.724,72.514c-0.673,0.003-1.343-0.146-1.95-0.438
				c-1.059-0.512-2.842-1.927-2.842-5.663V51.027c0.05-0.769-0.535-1.436-1.306-1.485c-0.374-0.023-0.745,0.105-1.024,0.356
				L9.231,70.786c-2.92,2.312-5.135,1.791-6.201,1.291c-1.066-0.503-2.839-1.927-2.839-5.663V36.082
				c0.254-5.149,2.587-9.974,6.468-13.369l26.38-20.887c2.922-2.313,5.134-1.792,6.201-1.291c1.064,0.503,2.841,1.963,2.841,5.663
				v15.384c-0.113,0.724,0.382,1.401,1.105,1.516c0.441,0.068,0.888-0.09,1.188-0.421L70.297,1.871
				c2.912-2.337,5.125-1.791,6.182-1.326c1.057,0.466,2.832,1.919,2.832,5.654v22.859c-0.006,5.144-4.175,9.313-9.318,9.318H11.696
				c-1.142-0.001-2.07-0.929-2.069-2.072s0.928-2.068,2.069-2.068h58.296c2.857-0.004,5.174-2.321,5.179-5.178V6.199
				c0.111-0.723-0.384-1.402-1.108-1.513c-0.438-0.068-0.878,0.087-1.176,0.411L46.963,25.903c-2.911,2.336-5.124,1.792-6.182,1.326
				c-1.058-0.467-2.833-1.918-2.833-5.655V6.199c0.051-0.77-0.533-1.435-1.306-1.484C36.267,4.69,35.899,4.817,35.62,5.07
				L9.231,25.956c-2.876,2.617-4.634,6.245-4.901,10.125v30.332c-0.05,0.769,0.534,1.435,1.304,1.483
				c0.376,0.023,0.747-0.104,1.025-0.355l26.38-20.887c2.922-2.313,5.134-1.793,6.201-1.292c1.064,0.502,2.841,1.937,2.841,5.664
				v15.386c-0.039,0.774,0.559,1.435,1.336,1.472c0.363,0.019,0.72-0.105,0.992-0.343l29.74-23.521
				c0.933-0.66,2.227-0.438,2.885,0.496c0.611,0.863,0.473,2.049-0.322,2.748L46.973,70.786
				C45.796,71.831,44.297,72.441,42.724,72.514z"/>
		</g>
	</g>
</g>
</svg>
